<svg xmlns="http://www.w3.org/2000/svg" width="1563" height="1563" viewBox="0 0 1563 1563" version="1.1">
	<path d="M 731.500 158.539 C 640.047 165.915, 558.905 188.736, 479.500 229.413 C 390.482 275.015, 317.293 336.719, 259.371 415 C 224.208 462.522, 192.841 521.536, 174.859 574 C 157.435 624.835, 147.946 669.561, 143.458 722 C 141.694 742.604, 141.452 791.610, 143.015 811.758 C 150.909 913.549, 184.106 1010.857, 239.473 1094.500 C 254.748 1117.577, 260.806 1125.693, 261.437 1123.928 C 262.957 1119.674, 274.802 1063.948, 274.814 1060.994 C 274.822 1059.072, 277.315 1047.600, 280.354 1035.500 C 283.394 1023.400, 287.928 1004.500, 290.430 993.500 C 292.932 982.500, 295.687 971.250, 296.552 968.500 C 298.159 963.392, 418 474.269, 418 472.818 C 418 472.379, 396.062 471.902, 369.250 471.760 L 320.500 471.500 320.202 465.250 L 319.905 459 370.742 459 L 421.579 459 432.899 412.750 C 439.125 387.313, 447.607 352.663, 451.748 335.750 L 459.277 305 520.206 305 C 577.769 305, 581.105 305.097, 580.604 306.750 C 579.494 310.415, 441 999.928, 441 1001.793 C 441 1004.093, 435.451 1029.363, 407.031 1156.500 L 386.018 1250.500 388.759 1252.749 C 394.943 1257.822, 422.668 1276.552, 436.596 1285.065 C 526.133 1339.797, 627.959 1372.115, 736 1380.092 C 744.525 1380.722, 765 1381.237, 781.500 1381.237 C 831.108 1381.237, 875.010 1376.714, 920.500 1366.919 C 1054.018 1338.168, 1174.301 1269.951, 1262.427 1173 C 1303.902 1127.372, 1333.415 1084.276, 1360.014 1030.500 C 1394.432 960.919, 1414.113 888.832, 1420.002 810.783 C 1421.511 790.773, 1421.262 743.476, 1419.536 722.500 C 1411.206 621.278, 1378.730 527.745, 1321.794 441 C 1294.878 399.993, 1262.218 361.702, 1225.500 328.106 C 1180.605 287.027, 1138.202 257.494, 1084.500 229.900 C 1003.076 188.061, 918.570 164.677, 824.813 158.040 C 805.157 156.648, 751.374 156.936, 731.500 158.539 M 573.598 522.532 L 542.696 675.963 553.348 729.231 C 559.207 758.529, 564 783.054, 564 783.730 C 564 784.658, 558.667 785.027, 542.315 785.230 L 520.631 785.500 505.846 859 C 497.714 899.425, 491.047 932.837, 491.030 933.250 C 491.014 933.663, 514.288 934, 542.750 934 L 594.500 934 607.277 997.227 C 614.304 1032.002, 620.379 1060.766, 620.777 1061.147 C 621.175 1061.529, 758.865 1061.582, 926.755 1061.265 L 1232.010 1060.689 1231.755 960.094 L 1231.500 859.500 1225.400 859.206 L 1219.300 858.912 1213.041 877.206 C 1201.126 912.033, 1189.805 938.274, 1179.481 955 C 1143.072 1013.982, 1103.019 1041.073, 1043.576 1046.925 C 1032.293 1048.035, 870 1048.513, 870 1047.435 C 870 1047.125, 947.963 943.962, 1043.250 818.185 L 1216.500 589.500 1216.835 583.250 L 1217.171 577 1002.085 577 L 787 577 787 665.548 L 787 754.095 793.085 753.798 L 799.170 753.500 805.910 735.500 C 821.536 693.771, 830.065 677.666, 849.070 654.004 C 874.776 621.997, 902.821 604.025, 941.117 595.015 C 962.615 589.958, 966.637 589.711, 1034.857 589.271 C 1072.957 589.026, 1099.069 589.225, 1098.857 589.760 C 1098.661 590.257, 1023.800 688.766, 932.500 808.668 L 766.500 1026.674 765.307 1022.587 C 764.650 1020.339, 728.461 872.700, 684.885 694.500 C 641.310 516.300, 605.397 370.185, 605.079 369.801 C 604.760 369.416, 590.594 438.145, 573.598 522.532 M 524.748 1096.069 C 522.684 1097.159, 519.759 1099.919, 518.248 1102.202 C 515.943 1105.685, 515.500 1107.425, 515.500 1113 C 515.500 1125.051, 522.326 1131.519, 535 1131.479 C 540.005 1131.464, 542.478 1130.904, 545.750 1129.045 L 550 1126.632 550 1118.316 L 550 1110 542 1110 L 534 1110 534 1113.500 C 534 1116.917, 534.095 1117, 538 1117 C 541.585 1117, 542 1117.256, 542 1119.465 C 542 1124.499, 533.229 1125.746, 528.111 1121.440 C 522.997 1117.136, 522.710 1109.199, 527.495 1104.414 C 530.298 1101.611, 536.852 1101.151, 541 1103.466 C 543.294 1104.746, 543.727 1104.645, 546.250 1102.243 C 547.763 1100.804, 549 1099.269, 549 1098.833 C 549 1098.397, 547.218 1097.132, 545.040 1096.020 C 539.715 1093.304, 529.942 1093.327, 524.748 1096.069 M 561 1112.443 L 561 1131 574.560 1131 L 588.121 1131 587.810 1127.250 L 587.500 1123.500 578.777 1123.211 L 570.054 1122.923 569.777 1108.711 L 569.500 1094.500 565.250 1094.193 L 561 1093.885 561 1112.443 M 603.894 1096.816 C 590.818 1105.212, 592.720 1124.389, 607.232 1130.452 C 612.534 1132.668, 617.870 1132.367, 623.559 1129.532 C 630.440 1126.104, 634.001 1120.482, 633.998 1113.050 C 633.997 1106.276, 631.833 1101.708, 626.677 1097.587 C 623.356 1094.933, 621.910 1094.487, 615.677 1094.195 C 609.134 1093.888, 608.093 1094.120, 603.894 1096.816 M 644 1112.500 L 644 1131 655.599 1131 C 663.998 1131, 668.098 1130.573, 670.460 1129.452 C 677.085 1126.308, 677.828 1117.441, 671.823 1113.181 C 670.018 1111.900, 670.023 1111.786, 671.982 1109.296 C 675.854 1104.373, 673.773 1098.056, 667.401 1095.394 C 665.300 1094.516, 660.350 1094, 654.032 1094 L 644 1094 644 1112.500 M 696.522 1097.250 C 695.766 1099.037, 692.226 1107.362, 688.656 1115.750 L 682.166 1131 686.591 1131 C 690.820 1131, 691.087 1130.823, 692.617 1127 L 694.217 1123 701.689 1123 L 709.161 1123 710.732 1127 C 712.230 1130.813, 712.507 1131, 716.652 1131 C 719.043 1131, 721 1130.702, 721 1130.337 C 721 1129.972, 717.581 1121.647, 713.403 1111.837 L 705.806 1094 701.852 1094 C 698.340 1094, 697.744 1094.363, 696.522 1097.250 M 730 1112.443 L 730 1131 743.560 1131 L 757.121 1131 756.810 1127.250 L 756.500 1123.500 747.777 1123.211 L 739.054 1122.923 738.777 1108.711 L 738.500 1094.500 734.250 1094.193 L 730 1093.885 730 1112.443 M 787.535 1097.104 C 784.426 1099.833, 784 1100.776, 784 1104.929 C 784 1111.004, 786.515 1113.482, 795.700 1116.460 C 800.355 1117.969, 802.610 1119.232, 802.848 1120.462 C 803.610 1124.395, 797.204 1125.165, 790.821 1121.909 L 786.721 1119.817 784.456 1122.658 C 781.775 1126.020, 781.938 1126.418, 787.065 1129.033 C 798.973 1135.108, 811.273 1130.538, 811.273 1120.038 C 811.273 1114.348, 808.276 1111.445, 799.716 1108.845 C 792.392 1106.621, 790.475 1104.588, 793.568 1102.327 C 795.677 1100.785, 800.145 1101.339, 803.690 1103.582 C 805.680 1104.841, 806.071 1104.725, 807.967 1102.315 C 809.115 1100.856, 809.902 1099.175, 809.717 1098.581 C 809.017 1096.332, 802.439 1094.003, 796.785 1094.002 C 791.817 1094, 790.607 1094.406, 787.535 1097.104 M 830.500 1095.665 C 823.579 1099.322, 820 1105.164, 820 1112.803 C 820 1126.330, 834.210 1135.700, 846.768 1130.452 C 859.103 1125.299, 862.959 1109.353, 854.212 1099.680 C 849.327 1094.278, 837.057 1092.201, 830.500 1095.665 M 868.667 1094.667 C 867.634 1095.699, 867.880 1113.096, 869.012 1119.061 C 869.577 1122.042, 871.011 1125.468, 872.262 1126.827 C 879.648 1134.849, 894.770 1133.129, 899.012 1123.784 C 900.607 1120.269, 900.960 1117.210, 900.978 1106.750 L 901 1094 896.500 1094 L 892 1094 892 1106.927 C 892 1119.702, 891.969 1119.879, 889.365 1121.927 C 886.081 1124.511, 882.920 1124.565, 879.861 1122.091 C 877.633 1120.289, 877.481 1119.445, 877.171 1107.091 L 876.841 1094 873.087 1094 C 871.023 1094, 869.033 1094.300, 868.667 1094.667 M 912 1112.500 L 912 1131 916.500 1131 L 921 1131 921 1125.500 C 921 1120.116, 921.060 1120, 923.858 1120 C 926.214 1120, 927.359 1120.968, 930.369 1125.500 C 933.989 1130.953, 934.063 1131, 939.047 1131 L 944.075 1131 939.935 1124.904 L 935.795 1118.807 939.010 1115.489 C 945.263 1109.038, 943.470 1098.766, 935.510 1095.440 C 933.288 1094.511, 928.501 1094, 922.032 1094 L 912 1094 912 1112.500 M 962.481 1095.394 C 958.642 1097.066, 953.209 1103.216, 952.431 1106.768 C 952.102 1108.271, 951.650 1110.089, 951.425 1110.809 C 950.645 1113.313, 953.127 1121.478, 955.689 1124.837 C 961.892 1132.970, 976.534 1134.382, 983.024 1127.474 L 985.400 1124.945 982.850 1122.396 L 980.301 1119.846 976.900 1121.919 C 968.937 1126.775, 961.066 1122.191, 961.022 1112.673 C 961.004 1108.655, 961.490 1107.356, 963.923 1104.923 C 967.322 1101.524, 972.228 1101.032, 977.183 1103.594 C 980.157 1105.132, 980.355 1105.099, 982.803 1102.652 C 984.985 1100.470, 985.151 1099.887, 983.993 1098.491 C 980.367 1094.123, 969.116 1092.503, 962.481 1095.394 M 995 1112.500 L 995 1131 999.500 1131 L 1004 1131 1004 1112.500 L 1004 1094 999.500 1094 L 995 1094 995 1112.500 M 1016 1112.500 L 1016 1131 1019.967 1131 L 1023.934 1131 1024.217 1119.800 L 1024.500 1108.601 1032.855 1119.800 C 1041 1130.720, 1041.306 1131, 1045.105 1131 L 1049 1131 1049 1112.500 L 1049 1094 1044.534 1094 L 1040.068 1094 1039.784 1104.509 L 1039.500 1115.017 1031.527 1104.509 C 1023.877 1094.426, 1023.400 1094, 1019.777 1094 L 1016 1094 1016 1112.500 M 1068.748 1096.069 C 1066.684 1097.159, 1063.759 1099.919, 1062.248 1102.202 C 1059.943 1105.685, 1059.500 1107.425, 1059.500 1113 C 1059.500 1125.051, 1066.326 1131.519, 1079 1131.479 C 1084.005 1131.464, 1086.478 1130.904, 1089.750 1129.045 L 1094 1126.632 1094 1118.316 L 1094 1110 1086 1110 L 1078 1110 1078 1113.500 C 1078 1116.917, 1078.095 1117, 1082 1117 C 1085.585 1117, 1086 1117.256, 1086 1119.465 C 1086 1124.499, 1077.229 1125.746, 1072.111 1121.440 C 1066.997 1117.136, 1066.710 1109.199, 1071.495 1104.414 C 1074.298 1101.611, 1080.852 1101.151, 1085 1103.466 C 1087.294 1104.746, 1087.727 1104.645, 1090.250 1102.243 C 1091.763 1100.804, 1093 1099.269, 1093 1098.833 C 1093 1098.397, 1091.218 1097.132, 1089.040 1096.020 C 1083.715 1093.304, 1073.942 1093.327, 1068.748 1096.069 M 608.360 1103.460 C 603.459 1106.893, 602.799 1116.028, 607.120 1120.628 C 611.752 1125.558, 621.184 1124.281, 623.882 1118.359 C 627.559 1110.290, 622.956 1102, 614.799 1102 C 612.405 1102, 609.507 1102.657, 608.360 1103.460 M 653 1105.450 L 653 1109 657.750 1108.985 C 663.581 1108.966, 665.276 1107.986, 664.837 1104.887 C 664.532 1102.729, 663.948 1102.471, 658.750 1102.200 L 653 1101.900 653 1105.450 M 831.923 1104.923 C 827.775 1109.071, 827.773 1115.595, 831.918 1120.234 C 834.423 1123.038, 835.496 1123.500, 839.500 1123.500 C 843.504 1123.500, 844.577 1123.038, 847.082 1120.234 C 853.647 1112.887, 848.951 1102.072, 839.173 1102.022 C 835.707 1102.004, 834.265 1102.582, 831.923 1104.923 M 921 1107 L 921 1112 925.566 1112 C 931.700 1112, 934 1110.636, 934 1107 C 934 1103.364, 931.700 1102, 925.566 1102 L 921 1102 921 1107 M 699.738 1109.568 C 698.771 1112.178, 698.164 1114.497, 698.390 1114.723 C 698.615 1114.948, 700.410 1114.990, 702.379 1114.816 L 705.958 1114.500 703.727 1109.661 L 701.497 1104.823 699.738 1109.568 M 653 1120 L 653 1124 658.066 1124 C 664.033 1124, 667 1122.672, 667 1120 C 667 1117.328, 664.033 1116, 658.066 1116 L 653 1116 653 1120" stroke="none" fill="#1800ad" fill-rule="evenodd"/>
</svg>