<?xml version="1.0" encoding="UTF-8"?>
<svg version="1.1" viewBox="0 0 1563 1563" xmlns="http://www.w3.org/2000/svg">
<path d="m731.5 158.54c-91.453 7.376-172.6 30.197-252 70.874-89.018 45.602-162.21 107.31-220.13 185.59-35.163 47.522-66.53 106.54-84.512 159-17.424 50.835-26.913 95.561-31.401 148-1.764 20.604-2.006 69.61-0.443 89.758 7.894 101.79 41.091 199.1 96.458 282.74 15.275 23.077 21.333 31.193 21.964 29.428 1.52-4.254 13.365-59.98 13.377-62.934 8e-3 -1.922 2.501-13.394 5.54-25.494 3.04-12.1 7.574-31 10.076-42s5.257-22.25 6.122-25c1.607-5.108 121.45-494.23 121.45-495.68 0-0.439-21.938-0.916-48.75-1.058l-48.75-0.26-0.298-6.25-0.297-6.25h50.837 50.837l11.32-46.25c6.226-25.437 14.708-60.087 18.849-77l7.529-30.75h60.929c57.563 0 60.899 0.097 60.398 1.75-1.11 3.665-139.6 693.18-139.6 695.04 0 2.3-5.549 27.57-33.969 154.71l-21.013 94 2.741 2.249c6.184 5.073 33.909 23.803 47.837 32.316 89.537 54.732 191.36 87.05 299.4 95.027 8.525 0.63 29 1.145 45.5 1.145 49.608 0 93.51-4.523 139-14.318 133.52-28.751 253.8-96.968 341.93-193.92 41.475-45.628 70.988-88.724 97.587-142.5 34.418-69.581 54.099-141.67 59.988-219.72 1.509-20.01 1.26-67.307-0.466-88.283-8.33-101.22-40.806-194.76-97.742-281.5-26.916-41.007-59.576-79.298-96.294-112.89-44.895-41.079-87.298-70.612-141-98.206-81.424-41.839-165.93-65.223-259.69-71.86-19.656-1.392-73.439-1.104-93.313 0.499m-157.9 363.99-30.902 153.43 10.652 53.268c5.859 29.298 10.652 53.823 10.652 54.499 0 0.928-5.333 1.297-21.685 1.5l-21.684 0.27-14.785 73.5c-8.132 40.425-14.799 73.837-14.816 74.25-0.016 0.413 23.258 0.75 51.72 0.75h51.75l12.777 63.227c7.027 34.775 13.102 63.539 13.5 63.92 0.398 0.382 138.09 0.435 305.98 0.118l305.26-0.576-0.255-100.6-0.255-100.59-12.2-0.588-6.259 18.294c-11.915 34.827-23.236 61.068-33.56 77.794-36.409 58.982-76.462 86.073-135.9 91.925-11.283 1.11-173.58 1.588-173.58 0.51 0-0.31 77.963-103.47 173.25-229.25l173.25-228.68 0.335-6.25 0.336-6.25h-215.09-215.08v88.548 88.547l6.085-0.297 6.085-0.298 6.74-18c15.626-41.729 24.155-57.834 43.16-81.496 25.706-32.007 53.751-49.979 92.047-58.989 21.498-5.057 25.52-5.304 93.74-5.744 38.1-0.245 64.212-0.046 64 0.489-0.196 0.497-75.057 99.006-166.36 218.91l-166 218.01-1.193-4.087c-0.657-2.248-36.846-149.89-80.422-328.09-43.575-178.2-79.488-324.32-79.806-324.7-0.319-0.385-14.485 68.344-31.481 152.73m-48.85 573.54c-2.064 1.09-4.989 3.85-6.5 6.133-2.305 3.483-2.748 5.223-2.748 10.798 0 12.051 6.826 18.519 19.5 18.479 5.005-0.015 7.478-0.575 10.75-2.434l4.25-2.413v-8.316-8.316h-8-8v3.5c0 3.417 0.095 3.5 4 3.5 3.585 0 4 0.256 4 2.465 0 5.034-8.771 6.281-13.889 1.975-5.114-4.304-5.401-12.241-0.616-17.026 2.803-2.803 9.357-3.263 13.505-0.948 2.294 1.28 2.727 1.179 5.25-1.223 1.513-1.439 2.75-2.974 2.75-3.41s-1.782-1.701-3.96-2.813c-5.325-2.716-15.098-2.693-20.292 0.049m36.252 16.374v18.557h13.56 13.561l-0.311-3.75-0.31-3.75-8.723-0.289-8.723-0.288-0.277-14.212-0.277-14.211-4.25-0.307-4.25-0.308v18.558m42.894-15.627c-13.076 8.396-11.174 27.573 3.338 33.636 5.302 2.216 10.638 1.915 16.327-0.92 6.881-3.428 10.442-9.05 10.439-16.482-1e-3 -6.774-2.165-11.342-7.321-15.463-3.321-2.654-4.767-3.1-11-3.392-6.543-0.307-7.584-0.075-11.783 2.621m40.106 15.684v18.5h11.599c8.399 0 12.499-0.427 14.861-1.548 6.625-3.144 7.368-12.011 1.363-16.271-1.805-1.281-1.8-1.395 0.159-3.885 3.872-4.923 1.791-11.24-4.581-13.902-2.101-0.878-7.051-1.394-13.369-1.394h-10.032v18.5m52.522-15.25c-0.756 1.787-4.296 10.112-7.866 18.5l-6.49 15.25h4.425c4.229 0 4.496-0.177 6.026-4l1.6-4h7.472 7.472l1.571 4c1.498 3.813 1.775 4 5.92 4 2.391 0 4.348-0.298 4.348-0.663s-3.419-8.69-7.597-18.5l-7.597-17.837h-3.954c-3.512 0-4.108 0.363-5.33 3.25m33.478 15.193v18.557h13.56 13.561l-0.311-3.75-0.31-3.75-8.723-0.289-8.723-0.288-0.277-14.212-0.277-14.211-4.25-0.307-4.25-0.308v18.558m57.535-15.339c-3.109 2.729-3.535 3.672-3.535 7.825 0 6.075 2.515 8.553 11.7 11.531 4.655 1.509 6.91 2.772 7.148 4.002 0.762 3.933-5.644 4.703-12.027 1.447l-4.1-2.092-2.265 2.841c-2.681 3.362-2.518 3.76 2.609 6.375 11.908 6.075 24.208 1.505 24.208-8.995 0-5.69-2.997-8.593-11.557-11.193-7.324-2.224-9.241-4.257-6.148-6.518 2.109-1.542 6.577-0.988 10.122 1.255 1.99 1.259 2.381 1.143 4.277-1.267 1.148-1.459 1.935-3.14 1.75-3.734-0.7-2.249-7.278-4.578-12.932-4.579-4.968-2e-3 -6.178 0.404-9.25 3.102m42.965-1.439c-6.921 3.657-10.5 9.499-10.5 17.138 0 13.527 14.21 22.897 26.768 17.649 12.335-5.153 16.191-21.099 7.444-30.772-4.885-5.402-17.155-7.479-23.712-4.015m38.167-0.998c-1.033 1.032-0.787 18.429 0.345 24.394 0.565 2.981 1.999 6.407 3.25 7.766 7.386 8.022 22.508 6.302 26.75-3.043 1.595-3.515 1.948-6.574 1.966-17.034l0.022-12.75h-4.5-4.5v12.927c0 12.775-0.031 12.952-2.635 15-3.284 2.584-6.445 2.638-9.504 0.164-2.228-1.802-2.38-2.646-2.69-15l-0.33-13.091h-3.754c-2.064 0-4.054 0.3-4.42 0.667m43.333 17.833v18.5h4.5 4.5v-5.5c0-5.384 0.06-5.5 2.858-5.5 2.356 0 3.501 0.968 6.511 5.5 3.62 5.453 3.694 5.5 8.678 5.5h5.028l-4.14-6.096-4.14-6.097 3.215-3.318c6.253-6.451 4.46-16.723-3.5-20.049-2.222-0.929-7.009-1.44-13.478-1.44h-10.032v18.5m50.481-17.106c-3.839 1.672-9.272 7.822-10.05 11.374-0.329 1.503-0.781 3.321-1.006 4.041-0.78 2.504 1.702 10.669 4.264 14.028 6.203 8.133 20.845 9.545 27.335 2.637l2.376-2.529-2.55-2.549-2.549-2.55-3.401 2.073c-7.963 4.856-15.834 0.272-15.878-9.246-0.018-4.018 0.468-5.317 2.901-7.75 3.399-3.399 8.305-3.891 13.26-1.329 2.974 1.538 3.172 1.505 5.62-0.942 2.182-2.182 2.348-2.765 1.19-4.161-3.626-4.368-14.877-5.988-21.512-3.097m32.519 17.106v18.5h4.5 4.5v-18.5-18.5h-4.5-4.5v18.5m21 0v18.5h3.967 3.967l0.283-11.2 0.283-11.199 8.355 11.199c8.145 10.92 8.451 11.2 12.25 11.2h3.895v-18.5-18.5h-4.466-4.466l-0.284 10.509-0.284 10.508-7.973-10.508c-7.65-10.083-8.127-10.509-11.75-10.509h-3.777v18.5m52.748-16.431c-2.064 1.09-4.989 3.85-6.5 6.133-2.305 3.483-2.748 5.223-2.748 10.798 0 12.051 6.826 18.519 19.5 18.479 5.005-0.015 7.478-0.575 10.75-2.434l4.25-2.413v-8.316-8.316h-8-8v3.5c0 3.417 0.095 3.5 4 3.5 3.585 0 4 0.256 4 2.465 0 5.034-8.771 6.281-13.889 1.975-5.114-4.304-5.401-12.241-0.616-17.026 2.803-2.803 9.357-3.263 13.505-0.948 2.294 1.28 2.727 1.179 5.25-1.223 1.513-1.439 2.75-2.974 2.75-3.41s-1.782-1.701-3.96-2.813c-5.325-2.716-15.098-2.693-20.292 0.049m-460.39 7.391c-4.901 3.433-5.561 12.568-1.24 17.168 4.632 4.93 14.064 3.653 16.762-2.269 3.677-8.069-0.926-16.359-9.083-16.359-2.394 0-5.292 0.657-6.439 1.46m44.64 1.99v3.55l4.75-0.015c5.831-0.019 7.526-0.999 7.087-4.098-0.305-2.158-0.889-2.416-6.087-2.687l-5.75-0.3v3.55m178.92-0.527c-4.148 4.148-4.15 10.672-5e-3 15.311 2.505 2.804 3.578 3.266 7.582 3.266s5.077-0.462 7.582-3.266c6.565-7.347 1.869-18.162-7.909-18.212-3.466-0.018-4.908 0.56-7.25 2.901m89.077 2.077v5h4.566c6.134 0 8.434-1.364 8.434-5s-2.3-5-8.434-5h-4.566v5m-221.26 2.568c-0.967 2.61-1.574 4.929-1.348 5.155 0.225 0.225 2.02 0.267 3.989 0.093l3.579-0.316-2.231-4.839-2.23-4.838-1.759 4.745m-46.738 10.432v4h5.066c5.967 0 8.934-1.328 8.934-4s-2.967-4-8.934-4h-5.066v4" fill="#1800ad" fill-rule="evenodd"/>
</svg>
